<svg version="1.1" id="Layer_1" xmlns="http://www.w3.org/2000/svg" xmlns:xlink="http://www.w3.org/1999/xlink" x="0px" y="0px"
	 width="100%" viewBox="0 0 532 195" enable-background="new 0 0 532 195" xml:space="preserve">
<path fill="#000000" opacity="1.000000" stroke="none" 
	d="
M402.000000,196.000000 
	C268.000000,196.000000 134.500000,196.000000 1.000000,196.000000 
	C1.000000,131.000000 1.000000,66.000000 1.000000,1.000000 
	C178.333328,1.000000 355.666656,1.000000 533.000000,1.000000 
	C533.000000,66.000000 533.000000,131.000000 533.000000,196.000000 
	C489.500000,196.000000 446.000000,196.000000 402.000000,196.000000 
M353.917053,119.988556 
	C368.813599,120.321259 381.115875,113.817673 392.376617,104.986084 
	C396.017212,102.130798 398.933502,98.351959 402.893799,94.987625 
	C406.334473,91.440536 410.387024,88.293076 413.039825,84.231400 
	C415.575928,80.348465 418.323181,78.112823 422.898102,77.968483 
	C424.470490,77.918869 426.031372,77.504974 427.899048,77.209846 
	C427.152710,78.461395 426.441772,79.521751 425.861145,80.649223 
	C422.713745,86.760666 419.118225,92.701668 416.636627,99.075005 
	C414.905640,103.520599 416.495361,108.298027 420.142578,111.472778 
	C423.955750,114.791992 428.044312,112.755669 431.231628,110.109779 
	C436.304718,105.898376 441.184967,101.397385 445.692474,96.592636 
	C447.299408,94.879745 447.584595,91.926834 448.473083,89.539948 
	C443.185822,91.762505 439.416443,94.626930 435.269501,96.755852 
	C433.669769,97.577126 431.212463,96.727905 429.145874,96.639763 
	C429.268158,94.749626 428.728516,92.430504 429.627350,91.043678 
	C433.502045,85.065369 438.321686,79.643791 441.692352,73.421005 
	C443.104797,70.813347 442.561066,66.437553 441.472748,63.375252 
	C440.290833,60.049683 436.861298,60.903267 433.764130,61.543686 
	C429.468536,62.431908 425.029175,62.624672 421.208740,63.052734 
	C420.908325,61.180561 420.646637,59.549805 420.384949,57.919056 
	C418.690247,58.265602 416.756378,58.203350 415.342712,59.030315 
	C409.601074,62.389168 406.141815,67.810905 404.271088,73.907387 
	C403.388550,76.783569 402.542053,80.888672 407.407074,82.968681 
	C405.493500,85.384491 403.700531,87.648003 402.299530,89.416718 
	C396.193359,83.782043 390.693756,77.870796 384.358429,73.060097 
	C375.212646,66.115242 365.325928,60.361908 352.101349,62.013123 
	C349.610321,62.065262 346.986237,61.622192 344.649872,62.249939 
	C329.500793,66.320259 317.737091,75.377167 307.886078,87.358482 
	C302.520264,93.884674 296.516388,99.822838 288.449249,103.130180 
	C284.661438,104.683113 281.434845,102.963387 282.176025,99.032082 
	C283.112030,94.067421 284.489044,88.812431 287.147430,84.614632 
	C295.804779,70.943947 305.229950,57.762257 314.160278,44.260517 
	C318.577087,37.582714 319.510986,30.608902 315.123871,23.262733 
	C313.194489,20.032026 311.039825,18.845209 308.049683,21.051344 
	C300.068481,26.939869 291.587494,32.378689 284.552307,39.269550 
	C273.381134,50.211601 263.223572,62.188507 252.283661,73.321968 
	C252.161530,73.190613 252.039398,73.059250 251.998688,72.205284 
	C255.416229,66.552147 259.145691,61.060902 262.182556,55.210155 
	C267.524353,44.918671 272.666962,34.508595 277.435852,23.941875 
	C279.552216,19.252512 276.674591,13.905647 272.064972,13.171849 
	C269.177185,12.712150 265.877289,12.539638 263.201050,13.482966 
	C255.044647,16.357948 247.101059,19.836641 238.681244,22.712990 
	C238.545410,22.595762 238.409576,22.478537 238.734360,21.837847 
	C239.551971,20.787760 240.369568,19.737675 241.700104,18.028830 
	C226.325592,22.337145 211.793930,40.732109 213.557327,53.797356 
	C229.688141,46.841866 243.745346,35.406906 262.177032,32.551559 
	C261.866058,34.953228 262.050568,36.693214 261.400330,38.025917 
	C257.726685,45.555405 254.184921,53.180622 249.974365,60.409874 
	C242.419128,73.381653 234.318634,86.034828 226.666885,98.952003 
	C224.196808,103.121872 226.948273,106.206413 230.121201,108.537598 
	C232.992981,110.647522 235.403900,110.324486 237.704880,106.962067 
	C241.192093,101.866196 245.226532,97.133636 249.168808,92.362671 
	C257.604340,82.153969 265.843231,71.760437 274.718201,61.944901 
	C280.723785,55.302860 287.617188,49.451881 294.271088,43.420959 
	C295.219055,42.561775 297.058685,42.686390 298.485626,42.355675 
	C298.725769,42.803345 298.965912,43.251015 299.206055,43.698681 
	C295.078308,50.025379 290.977478,56.369850 286.817200,62.675102 
	C278.003754,76.032722 269.411621,89.565125 265.470886,105.275009 
	C264.238129,110.189453 263.190460,116.232445 268.516174,119.815460 
	C272.893524,122.760460 277.956116,121.460815 281.775116,118.523766 
	C290.313049,111.957588 298.423645,104.835724 307.071716,98.578239 
	C312.736633,102.905975 318.059662,107.809456 324.147827,111.424385 
	C332.933258,116.640839 342.296417,120.843445 353.917053,119.988556 
M188.726044,94.669212 
	C188.844910,94.803490 188.963776,94.937767 189.007477,95.883247 
	C188.421463,97.701912 187.775604,99.503792 187.260193,101.342255 
	C185.378342,108.055038 187.078079,112.823708 192.247482,113.453835 
	C194.796143,113.764519 198.076340,112.656532 200.187836,111.073318 
	C205.555222,107.048828 210.262863,102.147934 215.605408,98.085518 
	C218.782410,95.669762 219.733017,93.090080 218.617706,89.203011 
	C217.481949,89.889473 216.351913,90.491882 215.308624,91.218803 
	C212.646240,93.073814 210.179245,95.288765 207.324585,96.758591 
	C205.610916,97.640930 203.316330,97.395020 201.282822,97.656181 
	C201.201294,95.710915 200.448792,93.457932 201.171753,91.881622 
	C202.912567,88.085938 205.451736,84.666161 207.473190,80.987236 
	C210.894348,74.760902 217.840744,70.238068 216.931473,61.936401 
	C216.767059,60.435417 216.059662,58.290985 214.973465,57.778973 
	C213.728226,57.191975 211.261093,57.518234 210.231796,58.449837 
	C206.299454,62.009056 202.784714,66.024384 199.017365,69.772209 
	C190.438446,78.306664 181.829071,86.811287 173.129288,95.221710 
	C172.552460,95.779358 170.945114,95.794052 170.126068,95.407173 
	C169.507553,95.115005 168.843735,93.491982 169.129028,92.953232 
	C170.579056,90.215057 171.890320,87.178352 174.061340,85.089127 
	C180.644943,78.753555 188.001389,73.127342 191.210678,64.082787 
	C184.958862,60.182484 178.043777,61.354160 173.698181,66.793983 
	C172.065552,68.837700 170.370834,70.833008 168.669342,72.820358 
	C161.777588,80.869965 156.726257,89.408852 159.937561,100.711113 
	C161.205627,105.174057 162.971817,109.797646 167.550842,110.478088 
	C170.643570,110.937668 174.855347,108.968307 177.414963,106.754158 
	C181.569031,103.160744 184.778763,98.475647 188.726044,94.669212 
M108.623611,22.001196 
	C106.991737,22.928862 104.985451,23.516520 103.786224,24.837080 
	C92.505859,37.258774 81.698662,50.128147 70.074715,62.214138 
	C60.810955,71.846123 50.695091,80.673332 40.730282,89.604294 
	C38.661034,91.458862 34.060787,93.884315 33.254192,93.152199 
	C30.129347,90.315887 33.709030,87.611839 35.264389,85.385735 
	C43.717110,73.287781 52.591961,61.484554 61.032772,49.378551 
	C66.853210,41.030746 73.451187,32.947155 72.100342,21.555038 
	C71.575195,17.126308 69.868958,15.084208 65.385681,14.962651 
	C52.915722,14.624552 41.486565,18.191761 30.015501,22.797932 
	C15.982072,28.433010 8.055036,38.903572 3.357468,52.478386 
	C2.842508,53.966492 3.622585,56.526089 4.730799,57.742607 
	C5.525136,58.614574 8.131998,58.664028 9.479999,58.065868 
	C17.104584,54.682510 24.677883,51.158379 32.104458,47.361073 
	C39.567120,43.545319 46.837589,39.353668 54.192280,35.326740 
	C54.574211,35.800346 54.956146,36.273956 55.338081,36.747562 
	C54.595398,38.283482 54.107536,40.022736 53.069798,41.323204 
	C44.620770,51.911308 35.750179,62.179348 27.651342,73.025276 
	C21.409424,81.384422 14.539407,89.623848 14.883542,101.239326 
	C15.040708,106.544052 17.193253,109.950218 21.677328,112.164902 
	C26.309429,114.452690 30.359135,112.632469 33.773148,109.645172 
	C39.368671,104.749023 44.809525,99.654343 50.049896,94.379425 
	C57.053589,87.329590 63.865578,80.085320 70.629608,72.803513 
	C73.086845,70.158180 75.169518,67.164902 77.423096,64.330383 
	C78.066002,64.862312 78.708908,65.394249 79.351807,65.926178 
	C78.578186,67.435532 77.779663,68.932709 77.035027,70.456230 
	C72.592255,79.546165 67.841270,88.504501 63.854229,97.790588 
	C61.654003,102.915077 61.814392,108.950432 65.876289,113.026398 
	C69.580063,116.743011 75.538193,117.718262 79.943565,114.787857 
	C88.452919,109.127533 96.393036,102.567688 104.226234,95.973434 
	C105.702606,94.730568 105.584229,91.593338 106.201729,89.330238 
	C103.670784,89.744003 102.349640,90.641006 100.994354,91.483078 
	C95.813812,94.701805 90.740364,98.125252 85.365059,100.979004 
	C83.687180,101.869789 80.244720,102.063065 79.298500,101.029633 
	C78.159691,99.785881 78.037224,96.538757 78.835197,94.774170 
	C83.001984,85.560066 87.092255,76.244301 92.181648,67.531998 
	C98.127953,57.352795 105.106834,47.778900 111.577866,37.903168 
	C114.569939,33.336830 113.471695,25.667406 108.623611,22.001196 
M143.865479,99.999588 
	C153.028976,99.657227 157.216934,96.239166 156.781906,89.457664 
	C148.780914,92.446671 148.780914,92.446671 146.776337,90.705765 
	C148.589218,84.149872 150.736679,78.060555 151.838013,71.787567 
	C152.525070,67.874283 148.740952,65.884132 145.516998,68.261322 
	C141.958588,70.885139 138.374695,73.711945 135.608231,77.107307 
	C132.676712,80.705261 129.551529,84.967804 131.192825,89.992699 
	C132.176758,93.005020 132.086868,94.972778 129.670792,96.852814 
	C127.486992,98.552094 125.364693,100.340408 123.082062,101.893707 
	C122.657181,102.182831 121.497169,101.709282 120.852531,101.306114 
	C116.766129,98.750458 115.813545,90.074219 118.996559,86.488396 
	C131.536423,72.361588 144.517853,58.579144 156.256363,43.811192 
	C161.206558,37.583447 163.673889,29.308615 166.805969,21.771545 
	C167.429337,20.271433 166.523224,17.197968 165.249344,16.130226 
	C164.137833,15.198586 161.467255,15.842255 159.575714,16.229973 
	C158.390457,16.472923 157.224472,17.373709 156.301971,18.245989 
	C148.686539,25.446835 140.902939,32.489769 133.610916,40.007912 
	C123.577103,50.352871 116.092392,62.463482 110.655037,75.807465 
	C106.406967,86.232803 105.269402,96.856026 109.012619,107.711937 
	C110.766769,112.799240 113.945946,115.212547 119.287941,114.959595 
	C126.257416,114.629562 130.826706,110.175667 134.964325,105.188133 
	C137.125992,102.582451 138.460495,98.758713 143.865479,99.999588 
M490.889557,62.351021 
	C488.207703,59.939621 485.313141,59.153950 481.933502,60.956238 
	C475.412476,64.433784 468.098114,66.907852 462.466064,71.469086 
	C450.111694,81.474419 446.167236,88.982544 452.776093,105.241516 
	C456.614197,114.683937 460.207794,115.280594 467.313110,108.171104 
	C472.322205,103.159019 477.278137,98.093849 482.673035,92.631996 
	C482.422668,98.198051 481.893127,102.890106 482.073761,107.554657 
	C482.371521,115.244217 487.709747,118.624413 493.898895,114.280273 
	C500.228302,109.837738 505.327393,103.672974 511.166199,98.488670 
	C514.325867,95.683235 514.577393,92.660522 513.465210,88.932762 
	C507.639191,93.688293 502.122284,98.191544 495.212341,103.831886 
	C493.818756,99.632240 492.088074,96.860664 492.205505,94.169731 
	C492.362549,90.570763 493.344757,86.712044 495.033630,83.527588 
	C501.841095,70.691895 509.108704,58.101158 516.088745,45.355553 
	C518.097229,41.688068 520.246216,37.945892 521.297668,33.965084 
	C521.890381,31.721075 520.376770,28.920759 519.812012,26.371044 
	C517.508667,27.109343 515.170837,27.759420 512.922485,28.638449 
	C512.227051,28.910366 511.624115,29.721825 511.234375,30.427423 
	C505.457153,40.886017 499.749939,51.383499 493.913025,61.808418 
	C493.554657,62.448498 492.251648,62.559692 490.889557,62.351021 
z"/>
<path fill="#FFBDA5" opacity="1.000000" stroke="none" 
	d="
M252.637222,73.727638 
	C263.223572,62.188507 273.381134,50.211601 284.552307,39.269550 
	C291.587494,32.378689 300.068481,26.939869 308.049683,21.051344 
	C311.039825,18.845209 313.194489,20.032026 315.123871,23.262733 
	C319.510986,30.608902 318.577087,37.582714 314.160278,44.260517 
	C305.229950,57.762257 295.804779,70.943947 287.147430,84.614632 
	C284.489044,88.812431 283.112030,94.067421 282.176025,99.032082 
	C281.434845,102.963387 284.661438,104.683113 288.449249,103.130180 
	C296.516388,99.822838 302.520264,93.884674 307.886078,87.358482 
	C317.737091,75.377167 329.500793,66.320259 344.649872,62.249939 
	C346.986237,61.622192 349.610321,62.065262 352.549652,62.547302 
	C352.985870,69.652061 352.973785,76.222641 352.514587,82.853516 
	C349.062469,82.898087 346.057495,82.882362 342.844238,82.561066 
	C338.820343,83.116867 335.004700,83.978233 330.768829,84.857529 
	C325.735504,86.132767 321.163116,87.575874 316.498535,88.598068 
	C311.232727,89.752022 307.405731,92.132462 306.708282,97.940186 
	C298.423645,104.835724 290.313049,111.957588 281.775116,118.523766 
	C277.956116,121.460815 272.893524,122.760460 268.516174,119.815460 
	C263.190460,116.232445 264.238129,110.189453 265.470886,105.275009 
	C269.411621,89.565125 278.003754,76.032722 286.817200,62.675102 
	C290.977478,56.369850 295.078308,50.025379 299.206055,43.698681 
	C298.965912,43.251015 298.725769,42.803345 298.485626,42.355675 
	C297.058685,42.686390 295.219055,42.561775 294.271088,43.420959 
	C287.617188,49.451881 280.723785,55.302860 274.718201,61.944901 
	C265.843231,71.760437 257.604340,82.153969 249.168808,92.362671 
	C245.226532,97.133636 241.192093,101.866196 237.704880,106.962067 
	C235.403900,110.324486 232.992981,110.647522 230.121201,108.537598 
	C226.948273,106.206413 224.196808,103.121872 226.666885,98.952003 
	C234.318634,86.034828 242.419128,73.381653 249.974365,60.409874 
	C254.184921,53.180622 257.726685,45.555405 261.400330,38.025917 
	C262.050568,36.693214 261.866058,34.953228 262.177032,32.551559 
	C243.745346,35.406906 229.688141,46.841866 213.557327,53.797356 
	C211.793930,40.732109 226.325592,22.337145 241.700104,18.028830 
	C240.369568,19.737675 239.551971,20.787760 238.282761,22.293140 
	C237.678772,23.087950 237.526367,23.427462 237.373978,23.766973 
	C237.940857,23.538099 238.507751,23.309227 239.074631,23.080351 
	C247.101059,19.836641 255.044647,16.357948 263.201050,13.482966 
	C265.877289,12.539638 269.177185,12.712150 272.064972,13.171849 
	C276.674591,13.905647 279.552216,19.252512 277.435852,23.941875 
	C272.666962,34.508595 267.524353,44.918671 262.182556,55.210155 
	C259.145691,61.060902 255.416229,66.552147 251.645264,72.708389 
	C250.901215,74.340477 250.510590,75.469452 250.119949,76.598434 
	C250.349686,76.680244 250.579407,76.762054 250.809143,76.843864 
	C251.418503,75.805122 252.027863,74.766380 252.637222,73.727638 
z"/>
<path fill="#FFBDA5" opacity="1.000000" stroke="none" 
	d="
M109.029404,22.003960 
	C113.471695,25.667406 114.569939,33.336830 111.577866,37.903168 
	C105.106834,47.778900 98.127953,57.352795 92.181648,67.531998 
	C87.092255,76.244301 83.001984,85.560066 78.835197,94.774170 
	C78.037224,96.538757 78.159691,99.785881 79.298500,101.029633 
	C80.244720,102.063065 83.687180,101.869789 85.365059,100.979004 
	C90.740364,98.125252 95.813812,94.701805 100.994354,91.483078 
	C102.349640,90.641006 103.670784,89.744003 106.201729,89.330238 
	C105.584229,91.593338 105.702606,94.730568 104.226234,95.973434 
	C96.393036,102.567688 88.452919,109.127533 79.943565,114.787857 
	C75.538193,117.718262 69.580063,116.743011 65.876289,113.026398 
	C61.814392,108.950432 61.654003,102.915077 63.854229,97.790588 
	C67.841270,88.504501 72.592255,79.546165 77.035027,70.456230 
	C77.779663,68.932709 78.578186,67.435532 79.351807,65.926178 
	C78.708908,65.394249 78.066002,64.862312 77.423096,64.330383 
	C75.169518,67.164902 73.086845,70.158180 70.629608,72.803513 
	C63.865578,80.085320 57.053589,87.329590 50.049896,94.379425 
	C44.809525,99.654343 39.368671,104.749023 33.773148,109.645172 
	C30.359135,112.632469 26.309429,114.452690 21.677328,112.164902 
	C17.193253,109.950218 15.040708,106.544052 14.883542,101.239326 
	C14.539407,89.623848 21.409424,81.384422 27.651342,73.025276 
	C35.750179,62.179348 44.620770,51.911308 53.069798,41.323204 
	C54.107536,40.022736 54.595398,38.283482 55.338081,36.747562 
	C54.956146,36.273956 54.574211,35.800346 54.192280,35.326740 
	C46.837589,39.353668 39.567120,43.545319 32.104458,47.361073 
	C24.677883,51.158379 17.104584,54.682510 9.479999,58.065868 
	C8.131998,58.664028 5.525136,58.614574 4.730799,57.742607 
	C3.622585,56.526089 2.842508,53.966492 3.357468,52.478386 
	C8.055036,38.903572 15.982072,28.433010 30.015501,22.797932 
	C41.486565,18.191761 52.915722,14.624552 65.385681,14.962651 
	C69.868958,15.084208 71.575195,17.126308 72.100342,21.555038 
	C73.451187,32.947155 66.853210,41.030746 61.032772,49.378551 
	C52.591961,61.484554 43.717110,73.287781 35.264389,85.385735 
	C33.709030,87.611839 30.129347,90.315887 33.254192,93.152199 
	C34.060787,93.884315 38.661034,91.458862 40.730282,89.604294 
	C50.695091,80.673332 60.810955,71.846123 70.074715,62.214138 
	C81.698662,50.128147 92.505859,37.258774 103.786224,24.837080 
	C104.985451,23.516520 106.991737,22.928862 109.029404,22.003960 
M79.782265,63.868420 
	C80.032204,64.181190 80.282150,64.493965 80.532089,64.806732 
	C80.457672,64.296669 80.383255,63.786613 79.782265,63.868420 
z"/>
<path fill="#FFBDA5" opacity="1.000000" stroke="none" 
	d="
M143.466248,99.999298 
	C138.460495,98.758713 137.125992,102.582451 134.964325,105.188133 
	C130.826706,110.175667 126.257416,114.629562 119.287941,114.959595 
	C113.945946,115.212547 110.766769,112.799240 109.012619,107.711937 
	C105.269402,96.856026 106.406967,86.232803 110.655037,75.807465 
	C116.092392,62.463482 123.577103,50.352871 133.610916,40.007912 
	C140.902939,32.489769 148.686539,25.446835 156.301971,18.245989 
	C157.224472,17.373709 158.390457,16.472923 159.575714,16.229973 
	C161.467255,15.842255 164.137833,15.198586 165.249344,16.130226 
	C166.523224,17.197968 167.429337,20.271433 166.805969,21.771545 
	C163.673889,29.308615 161.206558,37.583447 156.256363,43.811192 
	C144.517853,58.579144 131.536423,72.361588 118.996559,86.488396 
	C115.813545,90.074219 116.766129,98.750458 120.852531,101.306114 
	C121.497169,101.709282 122.657181,102.182831 123.082062,101.893707 
	C125.364693,100.340408 127.486992,98.552094 129.670792,96.852814 
	C132.086868,94.972778 132.176758,93.005020 131.192825,89.992699 
	C129.551529,84.967804 132.676712,80.705261 135.608231,77.107307 
	C138.374695,73.711945 141.958588,70.885139 145.516998,68.261322 
	C148.740952,65.884132 152.525070,67.874283 151.838013,71.787567 
	C150.736679,78.060555 148.589218,84.149872 146.776337,90.705765 
	C148.780914,92.446671 148.780914,92.446671 156.781906,89.457664 
	C157.216934,96.239166 153.028976,99.657227 143.466248,99.999298 
M131.029037,65.453880 
	C137.076645,57.411461 143.269852,49.472923 149.112686,41.284378 
	C152.202057,36.954716 154.681534,32.189861 157.436356,27.621481 
	C156.910721,27.291561 156.385071,26.961641 155.859436,26.631720 
	C141.741714,40.470314 131.204910,56.869343 121.479538,73.848557 
	C121.919304,74.176514 122.359077,74.504471 122.798843,74.832428 
	C125.376289,71.881645 127.953735,68.930862 131.029037,65.453880 
z"/>
<path fill="#FF9B83" opacity="1.000000" stroke="none" 
	d="
M491.138855,62.633995 
	C492.251648,62.559692 493.554657,62.448498 493.913025,61.808418 
	C499.749939,51.383499 505.457153,40.886017 511.234375,30.427423 
	C511.624115,29.721825 512.227051,28.910366 512.922485,28.638449 
	C515.170837,27.759420 517.508667,27.109343 519.812012,26.371040 
	C520.376770,28.920759 521.890381,31.721075 521.297668,33.965084 
	C520.246216,37.945892 518.097229,41.688068 516.088745,45.355553 
	C509.108704,58.101158 501.841095,70.691895 495.033630,83.527588 
	C493.344757,86.712044 492.362549,90.570763 492.205505,94.169731 
	C492.088074,96.860664 493.818756,99.632240 495.212341,103.831886 
	C502.122284,98.191544 507.639191,93.688293 513.465210,88.932762 
	C514.577393,92.660522 514.325867,95.683235 511.166199,98.488670 
	C505.327393,103.672974 500.228302,109.837738 493.898895,114.280273 
	C487.709747,118.624413 482.371521,115.244217 482.073761,107.554657 
	C481.893127,102.890106 482.422668,98.198051 482.673035,92.631996 
	C477.278137,98.093849 472.322205,103.159019 467.313110,108.171104 
	C460.207794,115.280594 456.614197,114.683937 452.776093,105.241516 
	C446.167236,88.982544 450.111694,81.474419 462.466064,71.469086 
	C468.098114,66.907852 475.412476,64.433784 481.933502,60.956238 
	C485.313141,59.153950 488.207703,59.939621 491.138855,62.633995 
M486.265228,73.959923 
	C479.858917,77.305229 473.398834,80.552422 467.063110,84.026482 
	C461.869263,86.874413 459.270477,94.744148 462.164825,99.346588 
	C463.510223,98.637192 465.092712,98.121559 466.270844,97.126968 
	C471.643646,92.591278 477.121490,88.142143 482.112213,83.207451 
	C484.674652,80.673820 486.294708,77.187111 488.340637,74.131111 
	C487.867615,73.950714 487.394562,73.770317 486.265228,73.959923 
z"/>
<path fill="#FF9B83" opacity="1.000000" stroke="none" 
	d="
M352.961731,82.793221 
	C352.973785,76.222641 352.985870,69.652061 352.994934,62.623608 
	C365.325928,60.361908 375.212646,66.115242 384.358429,73.060097 
	C390.693756,77.870796 396.193359,83.782043 402.299530,89.416718 
	C403.700531,87.648003 405.493500,85.384491 407.407074,82.968681 
	C402.542053,80.888672 403.388550,76.783569 404.271088,73.907387 
	C406.141815,67.810905 409.601074,62.389168 415.342712,59.030315 
	C416.756378,58.203350 418.690247,58.265602 420.384949,57.919052 
	C420.646637,59.549805 420.908325,61.180561 421.208740,63.052734 
	C425.029175,62.624672 429.468536,62.431908 433.764130,61.543686 
	C436.861298,60.903267 440.290833,60.049683 441.472748,63.375252 
	C442.561066,66.437553 443.104797,70.813347 441.692352,73.421005 
	C438.321686,79.643791 433.502045,85.065369 429.627350,91.043678 
	C428.728516,92.430504 429.268158,94.749626 429.145874,96.639763 
	C431.212463,96.727905 433.669769,97.577126 435.269501,96.755852 
	C439.416443,94.626930 443.185822,91.762505 448.473083,89.539948 
	C447.584595,91.926834 447.299408,94.879745 445.692474,96.592636 
	C441.184967,101.397385 436.304718,105.898376 431.231628,110.109779 
	C428.044312,112.755669 423.955750,114.791992 420.142578,111.472778 
	C416.495361,108.298027 414.905640,103.520599 416.636627,99.075005 
	C419.118225,92.701668 422.713745,86.760666 425.861145,80.649223 
	C426.441772,79.521751 427.152710,78.461395 427.899048,77.209846 
	C426.031372,77.504974 424.470490,77.918869 422.898102,77.968483 
	C418.323181,78.112823 415.575928,80.348465 413.039825,84.231400 
	C410.387024,88.293076 406.334473,91.440536 402.445557,94.644524 
	C394.043701,88.316742 384.648499,86.481483 374.881683,84.669128 
	C371.050995,83.876427 367.479187,83.385284 363.462708,82.935860 
	C360.017365,83.030655 357.016693,83.083733 353.752258,83.051552 
	C353.312866,82.908600 353.137268,82.850906 352.961731,82.793221 
z"/>
<path fill="#FFBDA5" opacity="1.000000" stroke="none" 
	d="
M188.387115,94.251389 
	C184.778763,98.475647 181.569031,103.160744 177.414963,106.754158 
	C174.855347,108.968307 170.643570,110.937668 167.550842,110.478088 
	C162.971817,109.797646 161.205627,105.174057 159.937561,100.711113 
	C156.726257,89.408852 161.777588,80.869965 168.669342,72.820358 
	C170.370834,70.833008 172.065552,68.837700 173.698181,66.793983 
	C178.043777,61.354160 184.958862,60.182484 191.210678,64.082787 
	C188.001389,73.127342 180.644943,78.753555 174.061340,85.089127 
	C171.890320,87.178352 170.579056,90.215057 169.129028,92.953232 
	C168.843735,93.491982 169.507553,95.115005 170.126068,95.407173 
	C170.945114,95.794052 172.552460,95.779358 173.129288,95.221710 
	C181.829071,86.811287 190.438446,78.306664 199.017365,69.772209 
	C202.784714,66.024384 206.299454,62.009056 210.231796,58.449837 
	C211.261093,57.518234 213.728226,57.191975 214.973465,57.778973 
	C216.059662,58.290985 216.767059,60.435417 216.931473,61.936401 
	C217.840744,70.238068 210.894348,74.760902 207.473190,80.987236 
	C205.451736,84.666161 202.912567,88.085938 201.171753,91.881622 
	C200.448792,93.457932 201.201294,95.710915 201.282837,97.656181 
	C203.316330,97.395020 205.610916,97.640930 207.324585,96.758591 
	C210.179245,95.288765 212.646240,93.073814 215.308624,91.218803 
	C216.351913,90.491882 217.481949,89.889473 218.617706,89.203011 
	C219.733017,93.090080 218.782410,95.669762 215.605408,98.085518 
	C210.262863,102.147934 205.555222,107.048828 200.187836,111.073318 
	C198.076340,112.656532 194.796143,113.764519 192.247482,113.453835 
	C187.078079,112.823708 185.378342,108.055038 187.260193,101.342255 
	C187.775604,99.503792 188.421463,97.701912 189.322693,95.373802 
	C189.664185,94.328201 189.690475,93.792046 189.716751,93.255882 
	C189.273544,93.587715 188.830338,93.919548 188.387115,94.251389 
z"/>
<path fill="#C3BEE9" opacity="1.000000" stroke="none" 
	d="
M375.140564,84.970680 
	C384.648499,86.481483 394.043701,88.316742 402.089233,94.648499 
	C398.933502,98.351959 396.017212,102.130798 392.376617,104.986084 
	C381.115875,113.817673 368.813599,120.321259 353.470825,119.481148 
	C353.026733,115.309875 353.028870,111.646019 353.106323,107.734947 
	C353.461975,107.292435 353.742279,107.097122 354.418884,106.962112 
	C356.847626,107.201401 359.433868,108.273376 360.821533,107.412735 
	C369.089966,102.284645 377.211243,96.791832 375.140564,84.970680 
z"/>
<path fill="#DADADF" opacity="1.000000" stroke="none" 
	d="
M353.031006,107.982155 
	C353.028870,111.646019 353.026733,115.309875 353.024719,119.407700 
	C342.296417,120.843445 332.933258,116.640839 324.147827,111.424385 
	C318.059662,107.809456 312.736633,102.905975 306.890015,98.259216 
	C307.405731,92.132462 311.232727,89.752022 316.498535,88.598068 
	C321.163116,87.575874 325.735504,86.132767 331.091431,85.118767 
	C331.326874,94.261963 336.019196,100.287109 343.114410,104.550949 
	C346.047882,106.313797 349.703705,106.874641 353.031006,107.982155 
z"/>
<path fill="#A35416" opacity="1.000000" stroke="none" 
	d="
M353.106323,107.734947 
	C349.703705,106.874641 346.047882,106.313797 343.114410,104.550949 
	C336.019196,100.287109 331.326874,94.261963 331.511688,85.100830 
	C335.004700,83.978233 338.820343,83.116867 342.826050,82.986130 
	C343.146790,92.029686 345.948639,95.463676 353.224487,96.108246 
	C353.673065,96.430290 353.847717,96.682388 353.702789,97.295166 
	C353.647003,100.702744 353.834808,103.802284 354.022583,106.901817 
	C353.742279,107.097122 353.461975,107.292435 353.106323,107.734947 
z"/>
<path fill="#7D3F0E" opacity="1.000000" stroke="none" 
	d="
M353.026550,95.985680 
	C345.948639,95.463676 343.146790,92.029686 343.034302,83.291687 
	C346.057495,82.882362 349.062469,82.898087 352.514587,82.853516 
	C353.137268,82.850906 353.312866,82.908600 353.566956,83.413406 
	C353.439178,87.902245 353.232880,91.943962 353.026550,95.985680 
z"/>
<path fill="#000000" opacity="1.000000" stroke="none" 
	d="
M252.460449,73.524803 
	C252.027863,74.766380 251.418503,75.805122 250.809143,76.843864 
	C250.579407,76.762054 250.349686,76.680244 250.119949,76.598434 
	C250.510590,75.469452 250.901215,74.340477 251.604553,73.069687 
	C252.039398,73.059250 252.161530,73.190613 252.460449,73.524803 
z"/>
<path fill="#000000" opacity="1.000000" stroke="none" 
	d="
M238.877930,22.896671 
	C238.507751,23.309227 237.940857,23.538099 237.373978,23.766973 
	C237.526367,23.427462 237.678772,23.087950 238.052460,22.554874 
	C238.409576,22.478537 238.545410,22.595762 238.877930,22.896671 
z"/>
<path fill="#000000" opacity="1.000000" stroke="none" 
	d="
M80.045547,63.572487 
	C80.383255,63.786613 80.457672,64.296669 80.532089,64.806732 
	C80.282150,64.493965 80.032204,64.181190 80.045547,63.572487 
z"/>
<path fill="#000000" opacity="1.000000" stroke="none" 
	d="
M130.780106,65.716980 
	C127.953735,68.930862 125.376289,71.881645 122.798843,74.832428 
	C122.359077,74.504471 121.919304,74.176514 121.479538,73.848557 
	C131.204910,56.869343 141.741714,40.470314 155.859436,26.631720 
	C156.385071,26.961641 156.910721,27.291561 157.436356,27.621481 
	C154.681534,32.189861 152.202057,36.954716 149.112686,41.284378 
	C143.269852,49.472923 137.076645,57.411461 130.780106,65.716980 
z"/>
<path fill="#000000" opacity="1.000000" stroke="none" 
	d="
M486.593384,73.774925 
	C487.394562,73.770317 487.867615,73.950714 488.340637,74.131104 
	C486.294708,77.187111 484.674652,80.673820 482.112213,83.207451 
	C477.121490,88.142143 471.643646,92.591278 466.270844,97.126968 
	C465.092712,98.121559 463.510223,98.637192 462.164825,99.346588 
	C459.270477,94.744148 461.869263,86.874413 467.063110,84.026482 
	C473.398834,80.552422 479.858917,77.305229 486.593384,73.774925 
z"/>
<path fill="#7B3F0F" opacity="1.000000" stroke="none" 
	d="
M354.418884,106.962120 
	C353.834808,103.802284 353.647003,100.702744 354.039368,97.170792 
	C362.807892,93.648285 364.212433,91.554703 363.907379,82.894142 
	C367.479187,83.385284 371.050995,83.876427 374.881683,84.669128 
	C377.211243,96.791832 369.089966,102.284645 360.821533,107.412735 
	C359.433868,108.273376 356.847626,107.201401 354.418884,106.962120 
z"/>
<path fill="#4C3932" opacity="1.000000" stroke="none" 
	d="
M363.462708,82.935860 
	C364.212433,91.554703 362.807892,93.648285 354.282959,96.862747 
	C353.847717,96.682388 353.673065,96.430290 353.224518,96.108246 
	C353.232880,91.943962 353.439178,87.902245 353.830750,83.498672 
	C357.016693,83.083733 360.017365,83.030655 363.462708,82.935860 
z"/>
<path fill="#000000" opacity="1.000000" stroke="none" 
	d="
M188.556580,94.460297 
	C188.830338,93.919548 189.273544,93.587715 189.716751,93.255882 
	C189.690475,93.792046 189.664185,94.328201 189.360260,94.968201 
	C188.963776,94.937767 188.844910,94.803490 188.556580,94.460297 
z"/>
</svg>