<svg version="1.1" id="Layer_1" xmlns="http://www.w3.org/2000/svg" xmlns:xlink="http://www.w3.org/1999/xlink" x="0px" y="0px"
	 width="100%" viewBox="0 0 512 512" enable-background="new 0 0 512 512" xml:space="preserve">
<path fill="#000000" opacity="1.000000" stroke="none" 
	d="
M513.000000,337.000000 
	C513.000000,395.636932 513.000000,454.273895 513.000000,512.955444 
	C342.449524,512.955444 171.899048,512.955444 1.000000,512.955444 
	C1.000000,454.646240 1.000000,396.291779 1.281847,337.171783 
	C2.459778,337.526428 3.233731,338.777161 4.270331,339.747162 
	C18.828625,353.370819 32.818829,367.690063 48.185307,380.335602 
	C62.327625,391.973694 77.622559,402.321136 93.013550,412.306427 
	C116.484657,427.533905 141.538483,439.785278 168.001953,449.021576 
	C185.500793,455.129059 203.316116,460.036011 221.799072,461.970215 
	C233.502350,463.194946 245.260010,463.899994 257.453735,464.915466 
	C263.166504,464.662384 268.438232,464.515533 273.667206,463.963928 
	C285.167938,462.750641 296.853851,462.273499 308.091919,459.802612 
	C331.436768,454.669891 354.173950,447.350830 375.831787,437.026550 
	C398.387207,426.274445 419.908722,413.842743 440.375824,399.402466 
	C465.118591,381.945648 487.962250,362.422913 508.912354,340.614838 
	C510.168274,339.307465 511.632599,338.200287 513.000000,337.000000 
z"/>
<path fill="#000000" opacity="1.000000" stroke="none" 
	d="
M513.000000,150.000000 
	C513.000000,207.020889 513.000000,264.041779 512.708374,321.824402 
	C501.937042,309.877045 492.092621,296.570984 480.836273,284.591614 
	C461.499603,264.012970 441.341370,244.201141 418.683380,227.153320 
	C401.864441,214.498795 384.496979,202.704300 365.802063,192.952713 
	C344.414429,181.796555 322.138245,172.785431 298.411072,168.372498 
	C284.817871,165.844345 270.820648,165.488571 256.543091,164.083847 
	C250.828171,164.341812 245.579071,164.752045 240.322098,164.984268 
	C224.668640,165.675720 209.561050,169.205933 194.661011,173.753159 
	C171.479202,180.827820 149.841339,191.189713 129.206009,203.903412 
	C104.859161,218.903824 82.357597,236.267044 61.717258,255.957703 
	C48.640026,268.433258 36.125389,281.531982 23.870604,294.823425 
	C16.741817,302.555237 10.646401,311.237305 4.024863,319.442444 
	C3.210546,320.451508 2.017529,321.154938 1.000002,322.000000 
	C1.000000,259.979095 1.000000,197.958206 1.368290,135.419083 
	C2.173762,135.541824 2.744579,136.128937 3.027935,136.831909 
	C6.838024,146.284409 13.383669,153.068909 22.413187,157.810135 
	C33.486645,163.624619 44.668358,162.172180 56.142757,159.521347 
	C76.341217,154.855057 96.600677,150.449417 116.857689,146.040741 
	C145.632568,139.778259 174.403336,133.492599 203.224335,127.447975 
	C221.100174,123.698891 239.065765,120.377739 257.416077,116.917839 
	C267.174988,115.981766 276.513245,114.131248 285.841949,114.178154 
	C306.720215,114.283112 327.641663,114.684471 348.452454,116.223824 
	C362.505951,117.263351 376.499847,119.960754 390.346710,122.772072 
	C423.476685,129.498428 454.531647,142.642853 486.003143,154.478745 
	C491.465546,156.533066 497.165924,159.462769 503.106750,156.737488 
	C506.682312,155.097244 509.720367,152.285355 513.000000,150.000000 
z"/>
<path fill="#000000" opacity="1.000000" stroke="none" 
	d="
M1.000000,110.000000 
	C1.000000,73.687714 1.000000,37.375435 1.000000,1.031575 
	C171.546722,1.031575 342.093475,1.031575 513.000000,1.031575 
	C513.000000,45.353580 513.000000,89.708130 512.650757,134.570648 
	C507.910492,131.394485 503.699341,127.463951 499.080566,124.091713 
	C493.886108,120.299202 488.362366,116.949326 482.915100,113.512756 
	C456.540283,96.873596 428.765991,83.121933 399.255676,72.929153 
	C369.410706,62.620785 339.002930,54.677937 307.459045,52.004776 
	C290.674438,50.582375 273.813049,50.065750 256.522278,49.090424 
	C249.946198,49.359264 243.819214,49.504467 237.725220,50.031353 
	C223.265030,51.281582 208.704559,51.976707 194.394852,54.230907 
	C168.250427,58.349426 142.253250,63.406685 116.203819,68.123016 
	C90.796776,72.723030 65.467850,77.803406 39.977528,81.877739 
	C22.485147,84.673683 9.048525,91.933281 2.645206,109.335892 
	C2.508071,109.708588 1.566372,109.785240 1.000000,110.000000 
z"/>
<path fill="#F1F1F4" opacity="1.000000" stroke="none" 
	d="
M256.993286,464.838104 
	C245.260010,463.899994 233.502350,463.194946 221.799072,461.970215 
	C203.316116,460.036011 185.500793,455.129059 168.001953,449.021576 
	C141.538483,439.785278 116.484657,427.533905 93.013550,412.306427 
	C77.622559,402.321136 62.327625,391.973694 48.185307,380.335602 
	C32.818829,367.690063 18.828625,353.370819 4.270331,339.747162 
	C3.233731,338.777161 2.459778,337.526428 1.281847,336.703125 
	C1.000000,334.629425 1.000000,332.258881 1.360320,329.406250 
	C5.625394,327.066101 9.415648,324.899780 13.453461,323.399933 
	C39.758423,313.628906 65.910561,303.378906 92.535103,294.561005 
	C108.689384,289.210754 125.601372,286.148315 142.143982,282.521057 
	C142.745895,292.253296 142.613571,301.649628 144.133316,310.770721 
	C153.012604,364.061493 203.383194,405.628418 256.927460,404.399750 
	C256.966064,404.564636 257.050781,404.892609 257.035736,405.367798 
	C257.011566,425.507996 257.002441,445.173065 256.993286,464.838104 
z"/>
<path fill="#E2DFF4" opacity="1.000000" stroke="none" 
	d="
M257.453735,464.915466 
	C257.002441,445.173065 257.011566,425.507996 257.464722,405.317932 
	C270.403229,404.251221 282.651337,402.439819 294.548615,398.359375 
	C338.866669,383.159393 375.141327,338.896484 372.313049,282.104126 
	C373.348480,282.309509 373.975342,282.544281 374.623047,282.678192 
	C408.811066,289.746948 442.105011,299.819946 474.520050,312.743469 
	C487.451630,317.899139 500.179443,323.565918 513.000000,329.000000 
	C513.000000,331.370575 513.000000,333.741119 513.000000,336.555847 
	C511.632599,338.200287 510.168274,339.307465 508.912354,340.614838 
	C487.962250,362.422913 465.118591,381.945648 440.375824,399.402466 
	C419.908722,413.842743 398.387207,426.274445 375.831787,437.026550 
	C354.173950,447.350830 331.436768,454.669891 308.091919,459.802612 
	C296.853851,462.273499 285.167938,462.750641 273.667206,463.963928 
	C268.438232,464.515533 263.166504,464.662384 257.453735,464.915466 
z"/>
<path fill="#694D33" opacity="1.000000" stroke="none" 
	d="
M1.000000,110.468651 
	C1.566372,109.785240 2.508071,109.708588 2.645206,109.335892 
	C9.048525,91.933281 22.485147,84.673683 39.977528,81.877739 
	C65.467850,77.803406 90.796776,72.723030 116.203819,68.123016 
	C142.253250,63.406685 168.250427,58.349426 194.394852,54.230907 
	C208.704559,51.976707 223.265030,51.281582 237.725220,50.031353 
	C243.819214,49.504467 249.946198,49.359264 256.527466,49.546978 
	C256.994843,72.323761 256.992950,94.594131 256.991058,116.864502 
	C239.065765,120.377739 221.100174,123.698891 203.224335,127.447975 
	C174.403336,133.492599 145.632568,139.778259 116.857689,146.040741 
	C96.600677,150.449417 76.341217,154.855057 56.142757,159.521347 
	C44.668358,162.172180 33.486645,163.624619 22.413187,157.810135 
	C13.383669,153.068909 6.838024,146.284409 3.027935,136.831909 
	C2.744579,136.128937 2.173762,135.541824 1.368290,134.950424 
	C1.000000,126.979103 1.000000,118.958199 1.000000,110.468651 
z"/>
<path fill="#FFBEAA" opacity="1.000000" stroke="none" 
	d="
M513.000000,328.562500 
	C500.179443,323.565918 487.451630,317.899139 474.520050,312.743469 
	C442.105011,299.819946 408.811066,289.746948 374.623047,282.678192 
	C373.975342,282.544281 373.348480,282.309509 371.913513,282.055908 
	C350.764618,278.921234 330.414093,275.852386 309.719238,272.561646 
	C303.284058,271.879425 297.199554,271.294556 291.101044,270.985657 
	C279.716278,270.408936 268.323334,269.992554 256.949219,269.071838 
	C256.978180,233.807709 256.991760,198.981232 257.005341,164.154755 
	C270.820648,165.488571 284.817871,165.844345 298.411072,168.372498 
	C322.138245,172.785431 344.414429,181.796555 365.802063,192.952713 
	C384.496979,202.704300 401.864441,214.498795 418.683380,227.153320 
	C441.341370,244.201141 461.499603,264.012970 480.836273,284.591614 
	C492.092621,296.570984 501.937042,309.877045 512.708374,322.293091 
	C513.000000,324.041656 513.000000,326.083344 513.000000,328.562500 
z"/>
<path fill="#FFDECF" opacity="1.000000" stroke="none" 
	d="
M256.543091,164.083847 
	C256.991760,198.981232 256.978180,233.807709 256.928589,269.189301 
	C256.892578,269.744415 256.986847,269.963257 256.535706,269.824493 
	C238.746475,270.591553 221.408386,271.497406 203.658859,272.335632 
	C200.931900,272.520966 198.598450,272.665344 196.303696,273.044159 
	C178.255936,276.023499 160.215591,279.047699 142.172958,282.058044 
	C125.601372,286.148315 108.689384,289.210754 92.535103,294.561005 
	C65.910561,303.378906 39.758423,313.628906 13.453461,323.399933 
	C9.415648,324.899780 5.625394,327.066101 1.360320,328.962097 
	C1.000000,326.958344 1.000000,324.916656 1.000002,322.437500 
	C2.017529,321.154938 3.210546,320.451508 4.024863,319.442444 
	C10.646401,311.237305 16.741817,302.555237 23.870604,294.823425 
	C36.125389,281.531982 48.640026,268.433258 61.717258,255.957703 
	C82.357597,236.267044 104.859161,218.903824 129.206009,203.903412 
	C149.841339,191.189713 171.479202,180.827820 194.661011,173.753159 
	C209.561050,169.205933 224.668640,165.675720 240.322098,164.984268 
	C245.579071,164.752045 250.828171,164.341812 256.543091,164.083847 
z"/>
<path fill="#4F4540" opacity="1.000000" stroke="none" 
	d="
M257.416077,116.917839 
	C256.992950,94.594131 256.994843,72.323761 256.991516,49.596840 
	C273.813049,50.065750 290.674438,50.582375 307.459045,52.004776 
	C339.002930,54.677937 369.410706,62.620785 399.255676,72.929153 
	C428.765991,83.121933 456.540283,96.873596 482.915100,113.512756 
	C488.362366,116.949326 493.886108,120.299202 499.080566,124.091713 
	C503.699341,127.463951 507.910492,131.394485 512.650757,135.039307 
	C513.000000,139.689255 513.000000,144.378510 513.000000,149.533875 
	C509.720367,152.285355 506.682312,155.097244 503.106750,156.737488 
	C497.165924,159.462769 491.465546,156.533066 486.003143,154.478745 
	C454.531647,142.642853 423.476685,129.498428 390.346710,122.772072 
	C376.499847,119.960754 362.505951,117.263351 348.452454,116.223824 
	C327.641663,114.684471 306.720215,114.283112 285.841949,114.178154 
	C276.513245,114.131248 267.174988,115.981766 257.416077,116.917839 
z"/>
<path fill="#694D34" opacity="1.000000" stroke="none" 
	d="
M310.063568,272.783539 
	C330.414093,275.852386 350.764618,278.921234 371.514648,282.038269 
	C375.141327,338.896484 338.866669,383.159393 294.548615,398.359375 
	C282.651337,402.439819 270.403229,404.251221 257.479736,404.842773 
	C257.050781,404.892609 256.966064,404.564636 256.959442,403.915649 
	C256.954224,383.526398 256.955597,363.786133 257.417480,344.033386 
	C260.370789,343.987671 262.901398,344.223663 265.350555,343.879761 
	C291.509277,340.206665 312.103271,316.492340 311.911743,289.986664 
	C311.870270,284.248138 310.709045,278.517700 310.063568,272.783539 
z"/>
<path fill="#8A6646" opacity="1.000000" stroke="none" 
	d="
M256.957001,344.045837 
	C256.955597,363.786133 256.954224,383.526398 256.920837,403.750793 
	C203.383194,405.628418 153.012604,364.061493 144.133316,310.770721 
	C142.613571,301.649628 142.745895,292.253296 142.143982,282.521057 
	C160.215591,279.047699 178.255936,276.023499 196.303696,273.044159 
	C198.598450,272.665344 200.931900,272.520966 203.653717,272.736389 
	C203.680054,281.381012 202.368591,289.640625 203.092087,297.717957 
	C205.405396,323.545380 230.796707,345.418915 256.967194,344.037842 
	C256.975372,344.034546 256.957001,344.045837 256.957001,344.045837 
z"/>
<path fill="#4F4540" opacity="1.000000" stroke="none" 
	d="
M309.719238,272.561646 
	C310.709045,278.517700 311.870270,284.248138 311.911743,289.986664 
	C312.103271,316.492340 291.509277,340.206665 265.350555,343.879761 
	C262.901398,344.223663 260.370789,343.987671 257.417480,344.033386 
	C256.957001,344.045837 256.975372,344.034546 256.981628,343.564880 
	C256.987518,318.717926 256.987183,294.340576 256.986847,269.963257 
	C256.986847,269.963257 256.892578,269.744415 256.913208,269.626953 
	C268.323334,269.992554 279.716278,270.408936 291.101044,270.985657 
	C297.199554,271.294556 303.284058,271.879425 309.719238,272.561646 
z"/>
<path fill="#694D33" opacity="1.000000" stroke="none" 
	d="
M256.535706,269.824493 
	C256.987183,294.340576 256.987518,318.717926 256.973450,343.568176 
	C230.796707,345.418915 205.405396,323.545380 203.092087,297.717957 
	C202.368591,289.640625 203.680054,281.381012 204.065155,272.804047 
	C221.408386,271.497406 238.746475,270.591553 256.535706,269.824493 
z"/>
</svg>